<svg xmlns="http://www.w3.org/2000/svg" viewBox="0 0 512 512">
  <defs>
    <linearGradient id="bg" x1="0" y1="0" x2="1" y2="1">
      <stop offset="0" stop-color="#43A05C"/>
      <stop offset="1" stop-color="#2F7A45"/>
    </linearGradient>
  </defs>
  <rect width="512" height="512" rx="112" fill="url(#bg)"/>
  <path d="M196 100 q-16 26 0 52 q16 26 0 52" fill="none" stroke="#F6F4EE" stroke-width="16" stroke-linecap="round" opacity=".65"/>
  <path d="M316 100 q-16 26 0 52 q16 26 0 52" fill="none" stroke="#F6F4EE" stroke-width="16" stroke-linecap="round" opacity=".65"/>
  <circle cx="256" cy="234" r="17" fill="#F6F4EE"/>
  <rect x="146" y="248" width="220" height="34" rx="17" fill="#F6F4EE"/>
  <rect x="96" y="298" width="52" height="24" rx="12" fill="#F6F4EE"/>
  <rect x="364" y="298" width="52" height="24" rx="12" fill="#F6F4EE"/>
  <path d="M132 292 h248 v76 a56 56 0 0 1 -56 56 h-136 a56 56 0 0 1 -56 -56 z" fill="#FFFFFF"/>
  <path d="M256 396 C 234 378, 214 363, 214 342 A 21 21 0 0 1 256 336 A 21 21 0 0 1 298 342 C 298 363, 278 378, 256 396 Z" fill="#D9482B"/>
</svg>
